# xmcd
#
# Track frame offsets:
#	150
#	21650
#	44575
#	62202
#	78455
#	96770
#	118270
#	141242
#	158820
#	175160
#
# Disc length: 2577 seconds
#
# Revision: 1
# Processed by: cddbd v1.5.1PL0 Copyright (c) Steve Scherf et al.
# Submitted via: audiograbber 1.83.01
#
DISCID=8f0a0f0a
DTITLE=Various Artist - 1286D
DYEAR=1900
DGENRE=Country
TTITLE0=Celine Dion - My Heart Will Go On
TTITLE1=Sarah McLachlan - I Will Remember You
TTITLE2=Raye/Ashton/Brickman - The Gift
TTITLE3=Garth Brooks - Belleau Wood
TTITLE4=Clint Black - Something That We Do
TTITLE5=Celine Dion - My Heart Will Go On
TTITLE6=Sarah McLachlan - I Will Remember You
TTITLE7=Raye/Ashton/Brickman - The Gift
TTITLE8=Garth Brooks - Belleau Wood
TTITLE9=Clint Black - Something That We Do
EXTD=
EXTT0=
EXTT1=
EXTT2=
EXTT3=
EXTT4=
EXTT5=
EXTT6=
EXTT7=
EXTT8=
EXTT9=
PLAYORDER=
